<svg xmlns="http://www.w3.org/2000/svg" xmlns:xlink="http://www.w3.org/1999/xlink" preserveAspectRatio="xMidYMid" width="16" height="16" viewBox="0 0 16 16">
  <defs>
    <style>
      .cls-1 {
        fill: #fff;
        fill-rule: evenodd;
      }
    </style>
  </defs>
  <path d="M8.000,15.999 C6.537,15.999 5.103,15.599 3.853,14.841 C3.845,14.836 3.840,14.835 3.833,14.837 C3.188,14.941 1.715,15.184 1.700,15.186 C1.455,15.227 1.203,15.146 1.027,14.968 C0.852,14.792 0.772,14.540 0.814,14.294 C0.814,14.294 1.066,12.835 1.177,12.189 C1.178,12.184 1.178,12.175 1.171,12.164 C0.404,10.911 -0.000,9.472 -0.000,8.000 C-0.000,3.588 3.589,-0.000 8.000,-0.000 C12.411,-0.000 16.000,3.588 16.000,8.000 C16.000,12.411 12.411,15.999 8.000,15.999 ZM8.000,1.543 C4.440,1.543 1.543,4.440 1.543,8.000 C1.543,9.187 1.868,10.346 2.483,11.351 C2.687,11.678 2.764,12.069 2.698,12.451 L2.520,13.486 C2.907,13.423 3.314,13.356 3.580,13.313 C3.666,13.299 3.752,13.292 3.838,13.292 C4.127,13.292 4.412,13.371 4.660,13.525 C5.663,14.133 6.819,14.456 8.000,14.456 C11.560,14.456 14.456,11.560 14.456,8.000 C14.456,4.440 11.560,1.543 8.000,1.543 ZM8.802,9.009 C8.802,9.025 8.801,9.040 8.801,9.053 L8.801,9.068 C8.801,9.080 8.801,9.091 8.800,9.101 L8.800,9.104 C8.782,9.517 8.443,9.840 8.030,9.840 C7.604,9.840 7.258,9.494 7.258,9.068 L7.258,9.056 C7.258,9.055 7.258,8.874 7.274,8.675 C7.294,8.130 7.695,7.665 8.231,7.565 C8.234,7.564 8.237,7.563 8.240,7.563 L8.245,7.562 C8.707,7.462 9.042,7.046 9.042,6.572 C9.042,6.013 8.588,5.559 8.030,5.559 C7.627,5.559 7.263,5.798 7.101,6.168 C6.930,6.557 6.474,6.735 6.084,6.565 C5.896,6.482 5.750,6.332 5.675,6.140 C5.600,5.948 5.604,5.738 5.687,5.549 C6.094,4.617 7.014,4.015 8.030,4.015 C9.439,4.015 10.586,5.162 10.586,6.572 C10.586,7.690 9.859,8.675 8.802,9.009 ZM8.030,9.971 C8.418,9.971 8.735,10.288 8.735,10.676 C8.735,11.065 8.418,11.381 8.030,11.381 C7.641,11.381 7.325,11.065 7.325,10.676 C7.325,10.288 7.641,9.971 8.030,9.971 Z" class="cls-1"/>
</svg>
