<svg width="16" height="16" viewBox="0 0 16 16" fill="none" xmlns="http://www.w3.org/2000/svg">
<g clip-path="url(#clip0_4_72)">
<path d="M15.4217 3L0.578309 3C0.258905 3 0 3.25891 0 3.57831V7.42169C0 7.7411 0.258873 8 0.578309 8L15.4217 8C15.7411 8 16 7.7411 16 7.42169V3.57831C16 3.2589 15.7411 3 15.4217 3ZM14.8434 6.84338L1.15662 6.84338V4.15662L14.8434 4.15662V6.84338Z" fill="white"/>
<path d="M13.8434 7.20971V14.8434H2.15662V7.20971H1V15.4217C1 15.7411 1.2589 16 1.57831 16H14.4217C14.7411 16 15 15.7411 15 15.4217V7.20971H13.8434Z" fill="white"/>
<path d="M11.4346 0.149781C11.1985 -0.0647805 10.8324 -0.0472181 10.6179 0.189312L7.57191 3.54351C7.47532 3.64992 7.42175 3.78851 7.42175 3.93232V15.4214C7.42175 15.7408 7.68066 15.9997 8.00006 15.9997C8.31947 15.9997 8.57856 15.7408 8.57856 15.4214V4.15576L11.474 0.966777C11.6887 0.730216 11.6712 0.36453 11.4346 0.149781Z" fill="white"/>
<path d="M8.44815 3.56692L5.71061 0.212718C5.50877 -0.0345935 5.14465 -0.0716246 4.89693 0.130406C4.64962 0.332248 4.61278 0.696558 4.81462 0.944088L7.55194 4.29829C7.66625 4.43844 7.83263 4.51091 8.00031 4.51091C8.12891 4.51091 8.25825 4.46832 8.36562 4.3806C8.61296 4.17876 8.64996 3.81445 8.44815 3.56692Z" fill="white"/>
</g>
<defs>
<clipPath id="clip0_4_72">
<rect width="16" height="16" fill="white"/>
</clipPath>
</defs>
</svg>
