<svg xmlns="http://www.w3.org/2000/svg" width="25" height="30" viewBox="0 0 25 30"><g><g><path d="M12.595 0C4.371.001 0 5.27 0 11.015c0 2.664 1.489 5.988 3.873 7.042.68.306.59-.068 1.175-2.306a.531.531 0 0 0-.128-.52C1.513 11.288 4.255 3.185 12.11 3.185c11.366 0 9.243 15.728 1.977 15.728-1.872 0-3.267-1.47-2.826-3.289.535-2.166 1.583-4.495 1.583-6.056 0-3.935-5.863-3.351-5.863 1.862 0 1.612.57 2.7.57 2.7s-1.886 7.62-2.236 9.043c-.593 2.41.08 6.311.139 6.648.036.185.243.243.36.09.186-.243 2.466-3.495 3.105-5.847.232-.856 1.186-4.331 1.186-4.331.629 1.135 2.441 2.085 4.372 2.085 5.746 0 9.898-5.05 9.898-11.316C24.354 4.495 19.213 0 12.595 0z"/></g></g></svg>