<svg xmlns="http://www.w3.org/2000/svg" xmlns:xlink="http://www.w3.org/1999/xlink" preserveAspectRatio="xMidYMid" width="16" height="16" viewBox="0 0 16 16">
  <defs>
    <style>
      .cls-1 {
        fill: #fff;
        fill-rule: evenodd;
      }
    </style>
  </defs>
  <path d="M15.390,15.994 L0.610,15.994 C0.274,15.994 -0.000,15.732 -0.000,15.408 C-0.000,15.085 0.274,14.823 0.610,14.823 L15.390,14.823 C15.726,14.823 16.000,15.085 16.000,15.408 C16.000,15.732 15.726,15.994 15.390,15.994 ZM6.068,11.816 C5.981,11.896 5.875,11.947 5.760,11.967 L1.488,12.859 L1.380,12.859 C1.218,12.857 1.066,12.795 0.953,12.683 C0.807,12.541 0.740,12.338 0.774,12.141 L0.776,12.133 L1.705,8.034 C1.737,7.930 1.799,7.838 1.886,7.769 L9.071,0.847 C9.617,0.300 10.386,-0.010 11.178,-0.005 C11.961,-0.011 12.727,0.293 13.281,0.826 C13.841,1.376 14.148,2.101 14.147,2.868 C14.152,3.621 13.836,4.358 13.281,4.890 L6.068,11.816 ZM2.178,11.510 L4.420,11.035 L2.672,9.357 L2.178,11.510 ZM3.166,8.184 L5.639,10.541 L11.687,4.753 L9.213,2.377 L3.166,8.184 ZM12.414,1.659 C12.084,1.341 11.644,1.167 11.176,1.167 L11.176,1.167 C10.776,1.164 10.384,1.299 10.076,1.540 L12.539,3.926 C12.793,3.631 12.932,3.255 12.927,2.871 L12.927,2.847 C12.927,2.398 12.745,1.976 12.414,1.659 Z" class="cls-1"/>
</svg>
