<svg xmlns="http://www.w3.org/2000/svg" width="17" height="30" viewBox="0 0 17 30"><g><g><path d="M4.506 16.934H.789c-.601 0-.789-.226-.789-.789v-4.543c0-.6.225-.788.789-.788h3.717V7.509c0-1.501.263-2.928 1.013-4.242.789-1.352 1.915-2.253 3.342-2.779A8.354 8.354 0 0 1 11.752 0h3.68c.526 0 .75.225.75.751v4.28c0 .526-.224.751-.75.751-1.014 0-2.028 0-3.041.038-1.014 0-1.54.488-1.54 1.54-.037 1.126 0 2.215 0 3.378h4.356c.6 0 .826.226.826.826v4.544c0 .6-.188.788-.826.788H10.85v12.24c0 .639-.188.864-.863.864H5.294c-.563 0-.788-.225-.788-.788V16.934z"/></g></g></svg>