<svg xmlns="http://www.w3.org/2000/svg" xmlns:xlink="http://www.w3.org/1999/xlink" preserveAspectRatio="xMidYMid" width="24" height="24" viewBox="0 0 24 24">
  <defs>
    <style>
      .cls-1 {
        fill: #292727;
        fill-rule: evenodd;
      }
    </style>
  </defs>
  <path d="M12.000,-0.000 C5.372,-0.000 -0.000,5.373 -0.000,12.000 C-0.000,18.627 5.372,24.000 12.000,24.000 C18.627,24.000 24.000,18.627 24.000,12.000 C24.000,5.373 18.627,-0.000 12.000,-0.000 ZM18.000,16.500 L9.945,16.500 C9.738,17.081 9.189,17.500 8.536,17.500 C7.884,17.500 7.335,17.081 7.128,16.500 L6.000,16.500 L6.000,15.500 L7.128,15.500 C7.335,14.919 7.884,14.500 8.536,14.500 C9.189,14.500 9.738,14.919 9.945,15.500 L18.000,15.500 L18.000,16.500 ZM18.000,12.500 L16.872,12.500 C16.665,13.081 16.116,13.500 15.463,13.500 C14.811,13.500 14.262,13.081 14.055,12.500 L6.000,12.500 L6.000,11.500 L14.055,11.500 C14.262,10.919 14.811,10.500 15.463,10.500 C16.116,10.500 16.665,10.919 16.872,11.500 L18.000,11.500 L18.000,12.500 ZM18.000,8.500 L9.945,8.500 C9.738,9.081 9.189,9.500 8.536,9.500 C7.884,9.500 7.335,9.081 7.128,8.500 L6.000,8.500 L6.000,7.500 L7.128,7.500 C7.335,6.919 7.884,6.500 8.536,6.500 C9.189,6.500 9.738,6.919 9.945,7.500 L18.000,7.500 L18.000,8.500 Z" class="cls-1"/>
</svg>
