<svg xmlns="http://www.w3.org/2000/svg" width="43.5mm" height="39.84mm" viewBox="0 0 123.3 112.92"><defs><style>.cls-1{fill:none;stroke:#ffffff;stroke-miterlimit:10;stroke-width:10px;}</style></defs><title>icon-presentsurprise</title><g id="Layer_2" data-name="Layer 2"><path class="cls-1" d="M61.65,30.59H27.42c-2.33,0-9.7-2-9.7-9.93C17.72,7.77,31.34,1,41.92,7.51,50.27,12.67,58.1,22.31,61.65,30.59Z"/><path class="cls-1" d="M61.65,30.59H95.88c2.33,0,9.7-2,9.7-9.93C105.58,7.77,92,1,81.38,7.51,73,12.67,65.2,22.31,61.65,30.59Z"/><path class="cls-1" d="M118.3,33.42v21.7a2.83,2.83,0,0,1-2.83,2.83H7.83A2.83,2.83,0,0,1,5,55.12V33.42a2.83,2.83,0,0,1,2.83-2.83H115.47A2.83,2.83,0,0,1,118.3,33.42Z"/><path class="cls-1" d="M112.51,57.95v47.15a2.83,2.83,0,0,1-2.83,2.83H13.61a2.83,2.83,0,0,1-2.83-2.83V57.95Z"/><rect class="cls-1" x="48.1" y="30.59" width="27.12" height="77.33"/></g></svg>