<?xml version="1.0" encoding="utf-8"?>
<!-- Generator: Adobe Illustrator 21.0.0, SVG Export Plug-In . SVG Version: 6.00 Build 0)  -->
<svg version="1.1" id="Слой_1" xmlns="http://www.w3.org/2000/svg" xmlns:xlink="http://www.w3.org/1999/xlink" x="0px" y="0px"
	 viewBox="0 0 130.1 70.6" style="enable-background:new 0 0 130.1 70.6;" xml:space="preserve">
<style type="text/css">
	.st0{fill:#FFFFFF;}
</style>
<title>logo-white</title>
<g id="Layer_1">
	<path class="st0" d="M84.1,33c-0.3-0.1-0.6,0-0.7,0.2c-0.5,0.7-1.1,1.4-1.7,2.2c-1.2,1.4-2.5,2.7-3.9,4c-1.6,1.6-3.5,3-5.4,4.2
		c-1.3,0.7-2.3,0.7-3-0.2c-0.5-0.6-0.7-1.4-0.6-2.2c0-3,1.2-6.5,3.5-10.4l1.6-2.9c0.6-1,0.8-2.1,0.7-3.3c0.1-0.8-0.6-1.6-1.4-1.6
		c-0.1,0-0.2,0-0.3,0c-2.2,0-6.1,2.9-11.6,8.6c-2.7,2.9-5,5.4-6.8,7.6c1.5-4.6,2.9-8.4,4.3-11.6c4.2-3.2,8.9-7,13.9-11.4
		c5.7-5.1,8.5-9.4,8.5-12.8c0-0.6-0.3-1.1-0.6-1.6C79.9,0.6,78.4,0,76.3,0c-0.8,0-1.5,0.2-2.3,0.5c-5.3,2-11,9.4-16.9,22.2
		c-0.4,0.8-0.8,1.6-1.4,2.3c-0.5-0.3-1.1-0.3-1.6-0.2c-0.3,0.2-0.5,0.6-0.5,0.9c0,0.4,0.3,0.8,0.7,1c-0.6,0.9-1.6,2.1-3,3.9
		c-1.4,1.7-2.4,2.9-2.8,3.5c-0.4,0.5-0.7,1.1-0.7,1.8c0,0.6,0.2,0.7,0.6,0.3c2.4-2.7,4.5-5,6.1-7.1c-0.8,2.1-2.4,6.5-4.8,13.1
		c-0.7,2-1.1,3.1-1.2,3.3c-0.1,0.1-0.1,0.3-0.1,0.5c0,0.1,0.3,0.2,0.7,0.2c1.2-0.3,2.3-0.7,3.3-1.4c0.4-0.3,2.1-2.4,5.1-6.4
		c2.1-2.9,4.3-5.6,6.8-8.2c2.3-2,3.8-3,4.6-3c0.4,0,0.6,0.2,0.6,0.6c-0.1,0.7-0.4,1.3-0.8,1.9c-2.4,4.4-3.7,7.7-4,9.8
		c-0.1,0.7-0.1,1.3-0.1,2c0,0.5,0.1,1.1,0.2,1.6c0.4,1.7,2,2.9,3.8,2.8c2.4-0.1,4.7-1,6.6-2.6c1.7-1.4,3.3-2.8,4.7-4.4
		c1.1-1.2,2.1-2.4,3.1-3.7l0,0c0.3-0.5,0.7-0.9,0.9-1.4c0.1-0.1,0.1-0.3,0.2-0.4C84.4,33.2,84.3,33.1,84.1,33z M75.1,3.2
		C75.9,2.5,76.9,2,78,1.9c0.7,0,1.1,0.4,1.1,1.2c-0.1,1.1-0.4,2.1-1,3c-2.1,3.6-4.6,6.9-7.7,9.7c-3.1,3.1-6.5,5.9-10.2,8.4
		C64.7,14.4,69.7,7.4,75.1,3.2z"/>
	<path class="st0" d="M110.4,1l-1.5-0.5l-1.8-0.2c-3.3,0-6.7,2.5-10,7.5c-1.9,3.1-3.5,6.3-5,9.6c-1.8,4-3.2,7.2-4.1,9.7l-2.2,5.5
		h-0.2c-0.2,0-0.4-0.2-0.8-0.6c-0.4-0.4-0.9-0.6-1.5-0.6c-0.9,0.1-1.8,0.3-2.6,0.6c-1.1,0.4-1.7,0.9-1.7,1.4c0,0.5,0.2,1,0.6,1.3
		c0.5,0.3,1.1,0.5,1.8,0.5h0.2c0.6,0,1.1,0,1.7-0.1l0,0c0.5,0,1-0.1,1.6-0.2C76.6,56.3,72,67.7,71.1,69.4c-0.1,0.2-0.1,0.4-0.2,0.6
		c0,0.4,0.4,0.5,1.1,0.5c0.9,0,1.7-0.3,2.4-0.8c0.9-0.5,1.4-0.8,1.5-0.9c0.2-0.1,0.3-0.3,0.4-0.5l0.3-0.6c0.1-0.3,0.2-0.5,0.3-0.8
		c0.2-0.4,0.3-0.8,0.4-1.1c0.1-0.3,0.3-0.8,0.6-1.4s0.5-1.2,0.6-1.7c0.2-0.8,0.4-1.6,0.4-2.4c0.1-2.2,3.1-10.8,9-25.8
		c4.8-0.7,9.3-1.3,11.8-1.6c0.9-0.1,1.6-0.2,1.9-0.3c0.9-0.3,1.4-0.5,1.4-0.7c0-0.2-0.7-0.5-1.8-0.5h-0.7c-1.8,0-5.8,0.2-9.3,0.5
		c4.3-3.5,8.3-7.4,11.9-11.6c4.1-4.6,6.9-8.4,8.2-11.3c0.7-1.5,1.2-3.1,1.2-4.7C112.6,3,111.8,1.7,110.4,1z M109.3,8.2
		c-2.7,4.6-5.8,9-9.3,13.1c-3.3,4.1-7,7.8-11.1,11c0,0,3.5-8.2,6.7-14.2c1.7-3,3.5-5.8,5.5-8.6c3.5-4.9,6.2-7.3,8.1-7.3
		c1,0,1.4,0.7,1.4,2C110.5,5.6,110.1,7,109.3,8.2L109.3,8.2z"/>
	<path class="st0" d="M117.1,27.5c-0.6-0.1-1.2,0-1.6,0.5c-0.4,0.4-0.5,1-0.3,1.5c0.2,0.7,0.4,1.5,0.3,2.3c-0.1,1.5-0.6,2.9-1.3,4.3
		c-0.5,1-1,1.9-1.6,2.8c-1.1,1.6-2.4,3-3.9,4.2c-1.1,1-2.5,1.5-4,1.6c-1,0.1-2-0.4-2.5-1.3c-0.4-0.7-0.6-1.5-0.7-2.3
		c0-0.6,0-1.2,0.2-1.8c0.7-3.6,2.4-6.9,4.9-9.6c2.7-3.2,5-4.8,6.7-4.8c1,0,1.5,0.4,1.5,1.3c0,0.7,0.1,1,0.4,1.1
		c0.6,0,0.9-0.6,0.9-1.7c0-1.3-0.9-2.5-2.2-2.8c-0.5-0.2-1-0.2-1.6-0.2c-2.2,0-4.5,1.1-6.9,3.2c-1.6,1.4-2.9,3-4,4.7
		c-0.3,0.4-0.5,0.8-0.7,1.2s-0.5,1-0.8,1.5c-1,2-1.5,4.1-1.5,6.3c0,2.7,0.9,4.5,2.6,5.6c1,0.7,2.2,1,3.4,1c2.4,0,4.7-0.9,6.5-2.5
		c1-0.9,2-1.9,2.9-3c0.5-0.6,1-1.2,1.4-1.8c2.3-3.2,3.5-5.9,3.5-7.8S118.1,27.7,117.1,27.5z"/>
	<path class="st0" d="M30.5,53.8c0.8-0.1,1.4,0.4,1.5,1.2c0,0.1,0,0.2,0,0.3c0,0.5-0.2,1-0.6,1.2c0.6,0.2,1,0.8,1,1.4
		c0,0.8-0.6,1.5-1.4,1.6h-2.2v-5.7L30.5,53.8L30.5,53.8z M31.5,55.3c0.1-0.5-0.3-0.9-0.8-1h-1.4v2h1.2c0.5,0,1-0.3,1-0.9
		C31.5,55.4,31.5,55.3,31.5,55.3z M31.8,57.9c0.1-0.6-0.4-1.1-1-1.2c-0.1,0-0.2,0-0.3,0h-1.3V59h1.3C31.5,59,31.8,58.5,31.8,57.9
		L31.8,57.9z"/>
	<path class="st0" d="M35,55.3c0.9-0.1,1.6,0.6,1.7,1.5c0,0,0,0,0,0c0,0,0,0.1,0,0.1c0,0.1,0,0.3,0,0.4h-3c-0.2,0.9,0.4,1.7,1.3,1.9
		c0.1,0,0.3,0,0.4,0c0.5,0,0.9-0.2,1.3-0.5v0.4c-0.4,0.3-1,0.5-1.6,0.5c-1.1,0-2-0.9-2-2c0-0.1,0-0.1,0-0.2
		C33.1,56.3,33.9,55.4,35,55.3z M35,55.7c-0.7,0-1.3,0.5-1.4,1.2h2.5c0.1-0.5-0.2-1.1-0.8-1.2C35.3,55.7,35.1,55.7,35,55.7L35,55.7z
		"/>
	<path class="st0" d="M37.5,58.8c0.4,0.2,0.9,0.4,1.3,0.4c0.6,0,1-0.2,1-0.8c0-0.5-0.4-0.6-1.1-0.8c-0.7-0.2-1.2-0.7-1.2-1.2
		c0.1-0.7,0.7-1.2,1.4-1.1c0,0,0,0,0,0c0.4,0,0.8,0.2,1.1,0.4L40,56.1c-0.3-0.2-0.7-0.3-1-0.3c-0.6,0-0.9,0.3-0.9,0.7
		c0,0.4,0.3,0.6,0.9,0.8c0.9,0.2,1.4,0.6,1.4,1.2c0,0.7-0.6,1.3-1.3,1.3c0,0,0,0,0,0h-0.2c-0.5,0-1-0.1-1.4-0.4L37.5,58.8z"/>
	<path class="st0" d="M42.3,55.9v3.7h-0.5v-3.7h-0.9v-0.4h0.9v-1.1h0.5v1.1h0.9v0.4H42.3z"/>
	<path class="st0" d="M47.6,53.8c0.8-0.1,1.4,0.4,1.5,1.2c0,0.1,0,0.2,0,0.3c0,0.5-0.2,1-0.7,1.2c0.6,0.2,1,0.8,1,1.4
		c0,0.8-0.6,1.5-1.4,1.6h-2.2v-5.7L47.6,53.8L47.6,53.8z M48.6,55.3c0.1-0.5-0.3-0.9-0.8-1h-1.4v2h1.2c0.5,0,1-0.3,1-0.9
		C48.6,55.4,48.6,55.3,48.6,55.3L48.6,55.3z M48.8,57.9c0.1-0.6-0.4-1.1-1-1.2c-0.1,0-0.2,0-0.3,0h-1.3V59h1.3
		C48.6,59,48.9,58.5,48.8,57.9L48.8,57.9z"/>
	<path class="st0" d="M50.4,55.5l0.4-0.1l0.1,0.8c0.3-0.5,0.9-0.9,1.6-0.9v0.6c-0.7-0.1-1.4,0.4-1.5,1.1v2.5h-0.5L50.4,55.5
		L50.4,55.5z"/>
	<path class="st0" d="M54.9,55.3c0.7,0,1.3,0.4,1.7,1v-0.8H57v4.1h-0.4v-0.8c-0.3,0.6-1,1-1.7,1c-1.2-0.1-2.1-1.1-2-2.3
		c0.1-1.1,0.9-1.9,2-2L54.9,55.3z M55,59.2c0.9,0.1,1.8-0.6,1.9-1.5s-0.6-1.8-1.5-1.9c-0.9-0.1-1.8,0.6-1.9,1.5c0,0.1,0,0.1,0,0.2
		c-0.1,0.9,0.6,1.6,1.4,1.7L55,59.2z"/>
	<path class="st0" d="M61.3,59.5v-2.3c0-1.1-0.4-1.4-1.1-1.4c-0.8,0-1.4,0.6-1.5,1.4v2.3h-0.5v-4.1h0.4v0.8c0.3-0.6,0.9-0.9,1.6-0.9
		c1,0,1.5,0.6,1.5,1.8v2.4L61.3,59.5L61.3,59.5z"/>
	<path class="st0" d="M64.8,55.3c0.6,0,1.3,0.3,1.6,0.9v-2.3h0.5v5.7h-0.4v-0.8c-0.3,0.6-1,1-1.7,1c-1.2,0-2.1-1-2.1-2.2
		C62.7,56.3,63.7,55.4,64.8,55.3L64.8,55.3z M64.9,59.2c0.9,0.1,1.8-0.6,1.9-1.6c0.1-0.9-0.6-1.8-1.6-1.9c-0.9-0.1-1.8,0.6-1.9,1.6
		c0,0,0,0,0,0c0,0,0,0.1,0,0.1c-0.1,0.9,0.6,1.6,1.4,1.7L64.9,59.2z"/>
	<path class="st0" d="M68,58.8c0.4,0.2,0.9,0.4,1.3,0.4c0.6,0,1-0.2,1-0.8c0-0.5-0.4-0.6-1.1-0.8S68,57,68,56.5s0.4-1.1,1.4-1.1
		c0.4,0,0.8,0.1,1.2,0.3l-0.1,0.4c-0.3-0.2-0.7-0.3-1.1-0.3c-0.6,0-0.9,0.3-0.9,0.7c0,0.4,0.3,0.6,0.9,0.8c0.9,0.2,1.4,0.6,1.4,1.2
		c0,0.7-0.6,1.3-1.3,1.4c0,0,0,0,0,0h-0.3c-0.5,0-1-0.1-1.4-0.4L68,58.8z"/>
	<path class="st0" d="M71.6,59.5v-0.6h0.6v0.6H71.6z"/>
	<path class="st0" d="M86.6,53.8c0.8-0.1,1.4,0.4,1.5,1.2c0,0.1,0,0.2,0,0.3c0,0.5-0.2,1-0.7,1.2c0.6,0.2,1,0.8,1,1.4
		c0,0.8-0.6,1.6-1.5,1.6c0,0,0,0,0,0h-2.1v-5.7L86.6,53.8L86.6,53.8z M87.6,55.3c0.1-0.5-0.3-0.9-0.8-1h-1.4v2h1.2
		c0.5,0,1-0.3,1-0.9C87.6,55.4,87.6,55.3,87.6,55.3z M87.9,57.9c0.1-0.6-0.4-1.1-1-1.2c-0.1,0-0.2,0-0.3,0h-1.3V59h1.3
		c0.5,0.1,1.1-0.2,1.2-0.8C88,58.1,88,58,87.9,57.9L87.9,57.9z"/>
	<path class="st0" d="M91.1,55.3c0.9-0.1,1.6,0.6,1.7,1.5c0,0,0,0,0,0c0,0,0,0.1,0,0.1c0,0.1,0,0.3,0,0.4h-3
		c-0.2,0.9,0.4,1.7,1.3,1.9c0,0,0,0,0,0h0.3c0.5,0,0.9-0.2,1.3-0.5v0.4c-0.4,0.3-1,0.5-1.6,0.5c-1.1,0-2-0.9-2-2c0-0.1,0-0.1,0-0.2
		c-0.1-1.1,0.7-2,1.8-2.1H91.1z M91.1,55.7c-0.7,0-1.3,0.5-1.4,1.2h2.6c0.1-0.5-0.2-1.1-0.7-1.2C91.4,55.7,91.3,55.7,91.1,55.7
		L91.1,55.7z"/>
	<path class="st0" d="M94.8,55.9v3.7h-0.5v-3.7h-0.9v-0.4h0.9v-1.1h0.5v1.1h0.9v0.4H94.8z"/>
	<path class="st0" d="M98.1,55.9v3.7h-0.5v-3.7h-0.9v-0.4h0.9v-1.1h0.5v1.1H99v0.4H98.1z"/>
	<path class="st0" d="M101.4,55.3c0.8,0,1.6,0.6,1.6,1.5c0,0,0,0.1,0,0.1c0,0.1,0,0.3,0,0.4h-3c-0.2,0.9,0.4,1.7,1.3,1.9
		c0.1,0,0.3,0,0.4,0c0.5,0,0.9-0.2,1.3-0.5v0.4c-0.4,0.3-1,0.5-1.6,0.5c-1.1,0-2-0.9-2-2c0-0.1,0-0.1,0-0.2
		C99.4,56.3,100.2,55.4,101.4,55.3C101.4,55.3,101.4,55.3,101.4,55.3z M101.4,55.7c-0.7,0-1.3,0.5-1.4,1.2h2.5
		c0.1-0.5-0.2-1.1-0.8-1.2C101.7,55.7,101.6,55.7,101.4,55.7L101.4,55.7z"/>
	<path class="st0" d="M104.1,55.5l0.4-0.1l0.1,0.8c0.3-0.5,0.9-0.9,1.6-0.9v0.6c-0.7-0.1-1.4,0.4-1.5,1.1c0,0,0,0,0,0v2.5h-0.5
		L104.1,55.5L104.1,55.5z"/>
	<path class="st0" d="M110.4,53.8c0.9,0,1.7,0.8,1.7,1.7c0,0.9-0.8,1.7-1.7,1.7l0,0h-1.2v2.2h-0.5v-5.7H110.4z M111.7,55.6
		c0.1-0.6-0.4-1.2-1-1.3h-1.4v2.5h1.2c0.6,0.1,1.2-0.4,1.2-1C111.7,55.7,111.7,55.6,111.7,55.6L111.7,55.6z"/>
	<path class="st0" d="M113,55.5l0.4-0.1l0.1,0.8c0.3-0.5,0.9-0.9,1.6-0.9v0.6c-0.7-0.1-1.4,0.3-1.6,1c0,0,0,0.1,0,0.1v2.5H113
		L113,55.5L113,55.5z"/>
	<path class="st0" d="M115.8,54.5v-0.6h0.5v0.6H115.8z M115.8,59.5v-4.1h0.5v4.1L115.8,59.5z"/>
	<path class="st0" d="M119.4,55.3c0.5,0,1,0.1,1.4,0.4v0.5c-0.4-0.3-0.8-0.4-1.3-0.4c-0.9,0-1.7,0.8-1.7,1.7c0,0.9,0.8,1.7,1.7,1.7
		c0.5,0,0.9-0.1,1.3-0.4v0.5c-0.4,0.3-0.9,0.4-1.4,0.4c-1.2,0-2.2-1-2.2-2.2C117.3,56.3,118.2,55.4,119.4,55.3L119.4,55.3z"/>
	<path class="st0" d="M123.3,55.3c0.9-0.1,1.6,0.6,1.7,1.4c0,0,0,0,0,0c0,0,0,0.1,0,0.1c0,0.1,0,0.3,0,0.4h-3
		c-0.2,0.9,0.4,1.7,1.3,1.9c0.1,0,0.3,0,0.4,0c0.5,0,0.9-0.2,1.3-0.5v0.4c-0.4,0.3-1,0.5-1.6,0.5c-1.2-0.1-2.1-1.2-1.9-2.4
		c0.1-1,0.9-1.8,1.9-1.9L123.3,55.3z M123.3,55.7c-0.7,0-1.3,0.5-1.4,1.2h2.5c0.1-0.5-0.2-1.1-0.8-1.2
		C123.6,55.7,123.4,55.7,123.3,55.7L123.3,55.7z"/>
	<path class="st0" d="M125.8,58.8c0.4,0.2,0.9,0.4,1.3,0.4c0.6,0,1-0.2,1-0.8c0-0.5-0.4-0.6-1.1-0.8c-0.7-0.2-1.2-0.7-1.2-1.2
		c0.1-0.7,0.7-1.2,1.4-1.1c0,0,0,0,0,0c0.4,0,0.8,0.1,1.2,0.3l-0.1,0.4c-0.3-0.2-0.7-0.3-1.1-0.3c-0.6,0-0.9,0.3-0.9,0.7
		c0,0.4,0.3,0.6,0.9,0.8c0.9,0.2,1.4,0.6,1.4,1.2c0,0.7-0.6,1.3-1.3,1.3h-0.2c-0.5,0-1-0.1-1.4-0.4L125.8,58.8z"/>
	<path class="st0" d="M129.4,59.5v-0.6h0.6v0.6H129.4z"/>
	<path class="st0" d="M53.4,8.6c-0.1,2.1-0.9,4-2.4,5.5c-1.7,1.7-3.8,3.1-6.1,3.9c-4.3,1.7-8.9,2.6-13.5,2.9
		c2.1,1.3,3.9,2.5,5.3,3.4c1.6,1.1,3.1,2.4,4.5,3.8c1.3,1.2,2.3,2.5,3.1,4.1c0.4,1,0.6,2,0.7,3.1c-0.1,3.1-1.3,6.1-3.4,8.4
		c-1.7,2-3.8,3.5-6.2,4.4c-2.7,1.1-5.6,1.7-8.5,1.7c-6.4,0-9.9-2.2-10.5-6.7c-0.1-0.1-0.2-0.3-0.1-0.5c-1.9,3-3.5,4.6-4.7,4.6
		c-0.6,0-1.1-0.1-1.7-0.3c-0.8-0.2-1.2-0.4-1.2-0.6c0-0.4,0-0.8,0-1.3c0.2-1.6,0.7-3.2,1.4-4.7c1-2.5,2-4.9,3.2-7.3
		c2.3-4.5,4.7-8.8,6.9-13c0.3-0.6,0.5-1.3,0.6-2c0-0.3,0-0.7-0.1-1c0.2-1.4,1.4-3.2,3.6-5.5s4.2-3.4,6-3.4c0.8,0.1,1.6,0.3,2.4,0.7
		c0.9,0.3,1.5,1,1.8,1.9c0,0.2,0,0.4,0,0.6c0,0.1-0.2,0.1-0.4,0c-0.1-0.1-0.3-0.1-0.5-0.2c-1.6,0-3.5,1.2-5.7,3.6
		c-2.4,2.7-4.6,5.6-6.4,8.7c-3.5,5.5-6.5,11.2-9.1,17.2c-0.3,0.7-0.5,1.5-0.6,2.3c0,0.7,0.3,1.1,1,1.1s1.5-0.7,2.6-2.1
		c1.1-1.4,1.9-2,2.3-2c0.4,0,0.8,0.1,1.1,0.4c0.2,0.2,0.4,0.5,0.6,0.8c0.1,0.4,0.2,0.8,0.2,1.2c0,0.3,0.1,0.7,0.2,1
		c0.8,3.5,3.3,5.3,7.5,5.3h0.3c3.1,0.1,6.2-0.8,8.8-2.5c2.7-1.8,4-4,4-6.7c0-2.7-1.3-5.5-3.7-8.4c-1.1-1.2-2.3-2.3-3.5-3.4
		c-3.3-2.8-5-4.6-5.1-5.5c-0.1-0.8,0.3-1.6,1-2c0.6-0.5,1.4-0.7,2.1-0.8c2.4,0,5.8-0.9,10-2.6c6.2-2.5,9.6-5.4,10-8.4V7.9
		c0-1-0.4-1.9-1.1-2.5c-1.3-1.4-4.2-2.2-8.5-2.2c-7,0.2-14,1.2-20.7,3.2c-4.5,1.2-8.7,3-12.6,5.5c-4,2.7-6,5.5-6,8.4
		c0,0.7,0.2,1.3,0.6,1.9c0.3,0.6,0.8,1.1,1.4,1.4c0.6,0.3,1.3,0.6,2,0.9c0.8,0.3,1.5,0.6,1.8,0.8c0.4,0.2,0.5,0.4,0.4,0.6
		S8,26.3,7.4,26.2c-1.8-0.2-3.5-0.9-4.9-2c-1.3-0.9-2.1-2.2-2.4-3.7v-0.1C0,19.8,0,19.3,0,18.9c0-0.3,0-0.7,0-1c0-0.1,0-0.2,0-0.3
		c0-0.1,0-0.1,0-0.2L0.1,17c0.1-0.2,0.1-0.5,0.2-0.7l0,0c0.7-1.8,1.8-3.4,3.3-4.7C6.1,9.3,9,7.3,12,5.7c3.4-1.8,8.8-3.4,16.2-4.7
		c3.5-0.6,7-0.9,10.5-1c2.5,0,5,0.2,7.4,0.7c2,0.4,3.9,1.4,5.3,2.8C52.8,4.9,53.5,6.7,53.4,8.6z"/>
</g>
</svg>
