<svg id="Слой_1" data-name="Слой 1" xmlns="http://www.w3.org/2000/svg" width="45.86mm" height="24.87mm" viewBox="0 0 130 70.5"><defs><style>.cls-1{fill:#353535;}</style></defs><title>logo-black</title><g id="Layer_1" data-name="Layer 1"><path class="cls-1" d="M84.1,33a.57.57,0,0,0-.7.2c-.5.7-1.1,1.4-1.7,2.2a48.87,48.87,0,0,1-3.9,4,31.3,31.3,0,0,1-5.4,4.2c-1.3.7-2.3.7-3-.2a2.86,2.86,0,0,1-.6-2.2c0-3,1.2-6.5,3.5-10.4l1.6-2.9a5.36,5.36,0,0,0,.7-3.3A1.48,1.48,0,0,0,73.2,23h-.3c-2.2,0-6.1,2.9-11.6,8.6-2.7,2.9-5,5.4-6.8,7.6,1.5-4.6,2.9-8.4,4.3-11.6,4.2-3.2,8.9-7,13.9-11.4,5.7-5.1,8.5-9.4,8.5-12.8a3.14,3.14,0,0,0-.6-1.6C79.9.6,78.4,0,76.3,0A6.35,6.35,0,0,0,74,.5c-5.3,2-11,9.4-16.9,22.2A10.89,10.89,0,0,1,55.7,25a2.26,2.26,0,0,0-1.6-.2,1.06,1.06,0,0,0,.2,1.9c-.6.9-1.6,2.1-3,3.9s-2.4,2.9-2.8,3.5a2.87,2.87,0,0,0-.7,1.8q0,.9.6.3c2.4-2.7,4.5-5,6.1-7.1-.8,2.1-2.4,6.5-4.8,13.1q-1.05,3-1.2,3.3a.75.75,0,0,0-.1.5c0,.1.3.2.7.2a9.68,9.68,0,0,0,3.3-1.4,68,68,0,0,0,5.1-6.4,75.84,75.84,0,0,1,6.8-8.2c2.3-2,3.8-3,4.6-3a.53.53,0,0,1,.6.6,4.55,4.55,0,0,1-.8,1.9c-2.4,4.4-3.7,7.7-4,9.8a13.4,13.4,0,0,0-.1,2,8.75,8.75,0,0,0,.2,1.6,3.69,3.69,0,0,0,3.8,2.8,10.92,10.92,0,0,0,6.6-2.6,39.42,39.42,0,0,0,4.7-4.4C81,37.7,82,36.5,83,35.2h0a11,11,0,0,0,.9-1.4c.1-.1.1-.3.2-.4C84.4,33.2,84.3,33.1,84.1,33Zm-9-29.8A5.15,5.15,0,0,1,78,1.9c.7,0,1.1.4,1.1,1.2a6.3,6.3,0,0,1-1,3,40.16,40.16,0,0,1-7.7,9.7,69.07,69.07,0,0,1-10.2,8.4C64.7,14.4,69.7,7.4,75.1,3.2Z"/><path class="cls-1" d="M110.4,1,108.9.5,107.1.3c-3.3,0-6.7,2.5-10,7.5a87.42,87.42,0,0,0-5,9.6c-1.8,4-3.2,7.2-4.1,9.7l-2.2,5.5h-.2c-.2,0-.4-.2-.8-.6a2,2,0,0,0-1.5-.6,11,11,0,0,0-2.6.6c-1.1.4-1.7.9-1.7,1.4a1.61,1.61,0,0,0,.6,1.3,3.45,3.45,0,0,0,1.8.5h.2a9.7,9.7,0,0,0,1.7-.1h0a10,10,0,0,0,1.6-.2C76.6,56.3,72,67.7,71.1,69.4c-.1.2-.1.4-.2.6,0,.4.4.5,1.1.5a4.07,4.07,0,0,0,2.4-.8,12.71,12.71,0,0,0,1.5-.9,1,1,0,0,0,.4-.5l.3-.6c.1-.3.2-.5.3-.8a7.6,7.6,0,0,0,.4-1.1,11.43,11.43,0,0,1,.6-1.4,7,7,0,0,0,.6-1.7,10,10,0,0,0,.4-2.4q.15-3.3,9-25.8c4.8-.7,9.3-1.3,11.8-1.6a12.5,12.5,0,0,0,1.9-.3c.9-.3,1.4-.5,1.4-.7s-.7-.5-1.8-.5h-.7c-1.8,0-5.8.2-9.3.5a93.18,93.18,0,0,0,11.9-11.6c4.1-4.6,6.9-8.4,8.2-11.3a11.29,11.29,0,0,0,1.2-4.7A3.5,3.5,0,0,0,110.4,1Zm-1.1,7.2A91.53,91.53,0,0,1,100,21.3a67.93,67.93,0,0,1-11.1,11s3.5-8.2,6.7-14.2a96.43,96.43,0,0,1,5.5-8.6c3.5-4.9,6.2-7.3,8.1-7.3,1,0,1.4.7,1.4,2a8.24,8.24,0,0,1-1.3,4Z"/><path class="cls-1" d="M117.1,27.5a1.6,1.6,0,0,0-1.6.5,1.4,1.4,0,0,0-.3,1.5,5.83,5.83,0,0,1,.3,2.3,11.26,11.26,0,0,1-1.3,4.3,25.43,25.43,0,0,1-1.6,2.8,19.48,19.48,0,0,1-3.9,4.2,6.47,6.47,0,0,1-4,1.6,2.58,2.58,0,0,1-2.5-1.3,6.15,6.15,0,0,1-.7-2.3,5.54,5.54,0,0,1,.2-1.8,19.62,19.62,0,0,1,4.9-9.6c2.7-3.2,5-4.8,6.7-4.8,1,0,1.5.4,1.5,1.3,0,.7.1,1,.4,1.1.6,0,.9-.6.9-1.7a2.88,2.88,0,0,0-2.2-2.8,4.14,4.14,0,0,0-1.6-.2c-2.2,0-4.5,1.1-6.9,3.2a22.18,22.18,0,0,0-4,4.7,7.46,7.46,0,0,0-.7,1.2c-.2.4-.5,1-.8,1.5a13.91,13.91,0,0,0-1.5,6.3c0,2.7.9,4.5,2.6,5.6a5.89,5.89,0,0,0,3.4,1,9.78,9.78,0,0,0,6.5-2.5,27.55,27.55,0,0,0,2.9-3,22,22,0,0,0,1.4-1.8c2.3-3.2,3.5-5.9,3.5-7.8S118.1,27.7,117.1,27.5Z"/><path class="cls-1" d="M30.5,53.8A1.29,1.29,0,0,1,32,55v.3a1.31,1.31,0,0,1-.6,1.2,1.5,1.5,0,0,1,1,1.4A1.62,1.62,0,0,1,31,59.5H28.8V53.8Zm1,1.5a.89.89,0,0,0-.8-1H29.3v2h1.2a.92.92,0,0,0,1-.9Zm.3,2.6a1.11,1.11,0,0,0-1-1.2H29.2V59h1.3c1,0,1.3-.5,1.3-1.1Z"/><path class="cls-1" d="M35,55.3a1.58,1.58,0,0,1,1.7,1.5h0v.5h-3A1.6,1.6,0,0,0,35,59.2h.4a2.11,2.11,0,0,0,1.3-.5v.4a2.77,2.77,0,0,1-1.6.5,2,2,0,0,1-2-2v-.2A2.08,2.08,0,0,1,35,55.3Zm0,.4a1.4,1.4,0,0,0-1.4,1.2h2.5a1,1,0,0,0-.8-1.2Z"/><path class="cls-1" d="M37.5,58.8a3.26,3.26,0,0,0,1.3.4c.6,0,1-.2,1-.8s-.4-.6-1.1-.8-1.2-.7-1.2-1.2a1.24,1.24,0,0,1,1.4-1.1h0a2.1,2.1,0,0,1,1.1.4v.4a1.93,1.93,0,0,0-1-.3c-.6,0-.9.3-.9.7s.3.6.9.8c.9.2,1.4.6,1.4,1.2a1.32,1.32,0,0,1-1.3,1.3h-.2a2.3,2.3,0,0,1-1.4-.4Z"/><path class="cls-1" d="M42.3,55.9v3.7h-.5V55.9h-.9v-.4h.9V54.4h.5v1.1h.9v.4Z"/><path class="cls-1" d="M47.6,53.8A1.29,1.29,0,0,1,49.1,55v.3a1.21,1.21,0,0,1-.7,1.2,1.5,1.5,0,0,1,1,1.4A1.62,1.62,0,0,1,48,59.5H45.8V53.8Zm1,1.5a.89.89,0,0,0-.8-1H46.4v2h1.2a.92.92,0,0,0,1-.9v-.1Zm.2,2.6a1.11,1.11,0,0,0-1-1.2H46.2V59h1.3c1.1,0,1.4-.5,1.3-1.1Z"/><path class="cls-1" d="M50.4,55.5l.4-.1.1.8a1.89,1.89,0,0,1,1.6-.9v.6A1.34,1.34,0,0,0,51,57v2.5h-.5l-.1-4Z"/><path class="cls-1" d="M54.9,55.3a2.06,2.06,0,0,1,1.7,1v-.8H57v4.1h-.4v-.8a1.94,1.94,0,0,1-1.7,1,2.16,2.16,0,0,1,0-4.3Zm.1,3.9a1.71,1.71,0,1,0-1.5-1.9v.2a1.57,1.57,0,0,0,1.4,1.7Z"/><path class="cls-1" d="M61.3,59.5V57.2c0-1.1-.4-1.4-1.1-1.4a1.52,1.52,0,0,0-1.5,1.4v2.3h-.5V55.4h.4v.8a1.7,1.7,0,0,1,1.6-.9q1.5,0,1.5,1.8v2.4Z"/><path class="cls-1" d="M64.8,55.3a1.8,1.8,0,0,1,1.6.9V53.9h.5v5.7h-.4v-.8a1.94,1.94,0,0,1-1.7,1,2.14,2.14,0,0,1-2.1-2.2,2.3,2.3,0,0,1,2.1-2.3Zm.1,3.9a1.76,1.76,0,1,0-1.6-1.9h0v.1a1.57,1.57,0,0,0,1.4,1.7Z"/><path class="cls-1" d="M68,58.8a3.26,3.26,0,0,0,1.3.4c.6,0,1-.2,1-.8s-.4-.6-1.1-.8S68,57,68,56.5s.4-1.1,1.4-1.1a2.66,2.66,0,0,1,1.2.3l-.1.4a2,2,0,0,0-1.1-.3c-.6,0-.9.3-.9.7s.3.6.9.8c.9.2,1.4.6,1.4,1.2a1.49,1.49,0,0,1-1.3,1.4h-.3a2.3,2.3,0,0,1-1.4-.4Z"/><path class="cls-1" d="M71.6,59.5v-.6h.6v.6Z"/><path class="cls-1" d="M86.6,53.8A1.29,1.29,0,0,1,88.1,55v.3a1.21,1.21,0,0,1-.7,1.2,1.5,1.5,0,0,1,1,1.4,1.56,1.56,0,0,1-1.5,1.6H84.8V53.8Zm1,1.5a.89.89,0,0,0-.8-1H85.4v2h1.2a.92.92,0,0,0,1-.9Zm.3,2.6a1.11,1.11,0,0,0-1-1.2H85.3V59h1.3a1,1,0,0,0,1.2-.8c.2-.1.2-.2.1-.3Z"/><path class="cls-1" d="M91.1,55.3a1.58,1.58,0,0,1,1.7,1.5h0v.5h-3a1.6,1.6,0,0,0,1.3,1.9h.3a2.11,2.11,0,0,0,1.3-.5v.4a2.77,2.77,0,0,1-1.6.5,2,2,0,0,1-2-2v-.2a1.93,1.93,0,0,1,1.8-2.1Zm0,.4a1.4,1.4,0,0,0-1.4,1.2h2.6a1,1,0,0,0-.7-1.2Z"/><path class="cls-1" d="M94.8,55.9v3.7h-.5V55.9h-.9v-.4h.9V54.4h.5v1.1h.9v.4Z"/><path class="cls-1" d="M98.1,55.9v3.7h-.5V55.9h-.9v-.4h.9V54.4h.5v1.1H99v.4Z"/><path class="cls-1" d="M101.4,55.3a1.56,1.56,0,0,1,1.6,1.5v.5h-3a1.6,1.6,0,0,0,1.3,1.9h.4a2.11,2.11,0,0,0,1.3-.5v.4a2.77,2.77,0,0,1-1.6.5,2,2,0,0,1-2-2v-.2a2.09,2.09,0,0,1,2-2.1Zm0,.4a1.4,1.4,0,0,0-1.4,1.2h2.5a1,1,0,0,0-.8-1.2Z"/><path class="cls-1" d="M104.1,55.5l.4-.1.1.8a1.89,1.89,0,0,1,1.6-.9v.6a1.34,1.34,0,0,0-1.5,1.1h0v2.5h-.5l-.1-4Z"/><path class="cls-1" d="M110.4,53.8a1.7,1.7,0,0,1,0,3.4h-1.2v2.2h-.5V53.7h1.7Zm1.3,1.8a1.2,1.2,0,0,0-1-1.3h-1.4v2.5h1.2a1.06,1.06,0,0,0,1.2-1v-.2Z"/><path class="cls-1" d="M113,55.5l.4-.1.1.8a1.89,1.89,0,0,1,1.6-.9v.6a1.43,1.43,0,0,0-1.6,1v2.6H113v-4Z"/><path class="cls-1" d="M115.8,54.5v-.6h.5v.6Zm0,5V55.4h.5v4.1Z"/><path class="cls-1" d="M119.4,55.3a2.3,2.3,0,0,1,1.4.4v.5a2,2,0,0,0-1.3-.4,1.7,1.7,0,0,0,0,3.4,2,2,0,0,0,1.3-.4v.5a2.3,2.3,0,0,1-1.4.4,2.22,2.22,0,0,1-2.2-2.2,2.37,2.37,0,0,1,2.2-2.2Z"/><path class="cls-1" d="M123.3,55.3a1.57,1.57,0,0,1,1.7,1.4h0v.5h-3a1.6,1.6,0,0,0,1.3,1.9h.4a2.11,2.11,0,0,0,1.3-.5V59a2.77,2.77,0,0,1-1.6.5,2.09,2.09,0,0,1-1.9-2.4,2.13,2.13,0,0,1,1.9-1.9Zm0,.4a1.4,1.4,0,0,0-1.4,1.2h2.5a1,1,0,0,0-.8-1.2Z"/><path class="cls-1" d="M125.8,58.8a3.26,3.26,0,0,0,1.3.4c.6,0,1-.2,1-.8s-.4-.6-1.1-.8-1.2-.7-1.2-1.2a1.24,1.24,0,0,1,1.4-1.1h0a2.66,2.66,0,0,1,1.2.3l-.1.4a2,2,0,0,0-1.1-.3c-.6,0-.9.3-.9.7s.3.6.9.8c.9.2,1.4.6,1.4,1.2a1.32,1.32,0,0,1-1.3,1.3h-.2a2.3,2.3,0,0,1-1.4-.4Z"/><path class="cls-1" d="M129.4,59.5v-.6h.6v.6Z"/><path class="cls-1" d="M53.4,8.6A8.17,8.17,0,0,1,51,14.1,16.36,16.36,0,0,1,44.9,18a44.66,44.66,0,0,1-13.5,2.9c2.1,1.3,3.9,2.5,5.3,3.4a32.34,32.34,0,0,1,4.5,3.8,13.88,13.88,0,0,1,3.1,4.1,10.76,10.76,0,0,1,.7,3.1,13.11,13.11,0,0,1-3.4,8.4,15,15,0,0,1-6.2,4.4,22.62,22.62,0,0,1-8.5,1.7c-6.4,0-9.9-2.2-10.5-6.7a.44.44,0,0,1-.1-.5c-1.9,3-3.5,4.6-4.7,4.6a5.08,5.08,0,0,1-1.7-.3q-1.2-.3-1.2-.6V45a15.88,15.88,0,0,1,1.4-4.7c1-2.5,2-4.9,3.2-7.3,2.3-4.5,4.7-8.8,6.9-13a6.64,6.64,0,0,0,.6-2,3.4,3.4,0,0,0-.1-1c.2-1.4,1.4-3.2,3.6-5.5s4.2-3.4,6-3.4a7.28,7.28,0,0,1,2.4.7,2.85,2.85,0,0,1,1.8,1.9v.6c0,.1-.2.1-.4,0s-.3-.1-.5-.2q-2.4,0-5.7,3.6a54.11,54.11,0,0,0-6.4,8.7,122.81,122.81,0,0,0-9.1,17.2,8.65,8.65,0,0,0-.6,2.3c0,.7.3,1.1,1,1.1s1.5-.7,2.6-2.1,1.9-2,2.3-2a1.5,1.5,0,0,1,1.1.4,5.55,5.55,0,0,1,.6.8,5,5,0,0,1,.2,1.2,3.55,3.55,0,0,0,.2,1c.8,3.5,3.3,5.3,7.5,5.3h.3a15.28,15.28,0,0,0,8.8-2.5c2.7-1.8,4-4,4-6.7s-1.3-5.5-3.7-8.4c-1.1-1.2-2.3-2.3-3.5-3.4-3.3-2.8-5-4.6-5.1-5.5a2,2,0,0,1,1-2,4.19,4.19,0,0,1,2.1-.8c2.4,0,5.8-.9,10-2.6,6.2-2.5,9.6-5.4,10-8.4V7.9a3.25,3.25,0,0,0-1.1-2.5C48.8,4,45.9,3.2,41.6,3.2A80.49,80.49,0,0,0,20.9,6.4,44.28,44.28,0,0,0,8.3,11.9q-6,4-6,8.4a3.29,3.29,0,0,0,.6,1.9,3.16,3.16,0,0,0,1.4,1.4c.6.3,1.3.6,2,.9a11.19,11.19,0,0,1,1.8.8c.4.2.5.4.4.6s-.5.4-1.1.3a9.67,9.67,0,0,1-4.9-2A5.78,5.78,0,0,1,.1,20.5v-.1A8.64,8.64,0,0,1,0,18.9V17.4L.1,17c.1-.2.1-.5.2-.7h0a11.85,11.85,0,0,1,3.3-4.7A41,41,0,0,1,12,5.7C15.4,3.9,20.8,2.3,28.2,1A74.59,74.59,0,0,1,38.7,0a36.4,36.4,0,0,1,7.4.7,10.5,10.5,0,0,1,5.3,2.8A6.63,6.63,0,0,1,53.4,8.6Z"/></g></svg>