<svg xmlns="http://www.w3.org/2000/svg" width="130.01" height="70.55" viewBox="0 0 130.01 70.55"><g><path d="M84.64,33.28a.57.57,0,0,0-.71.19c-.52.71-1.09,1.43-1.72,2.15a45.47,45.47,0,0,1-3.92,4,31.73,31.73,0,0,1-5.41,4.18c-1.3.7-2.29.65-3-.15a3.2,3.2,0,0,1-.6-2.16q0-4.56,3.51-10.38l1.61-2.91a5.71,5.71,0,0,0,.71-3.29,1.53,1.53,0,0,0-1.72-1.64q-3.29,0-11.57,8.59-4.11,4.32-6.8,7.61,2.25-6.87,4.33-11.57,6.34-4.79,13.89-11.42,8.5-7.7,8.51-12.77a3,3,0,0,0-.6-1.57C80.47.92,79,.32,76.83.32a6.55,6.55,0,0,0-2.31.52Q66.53,3.9,57.65,23a15.22,15.22,0,0,1-1.35,2.31,2.06,2.06,0,0,0-1.6-.19.9.9,0,0,0-.45.94,1.23,1.23,0,0,0,.71,1q-.9,1.28-3,3.85c-1.42,1.71-2.36,2.87-2.8,3.47a2.91,2.91,0,0,0-.68,1.75c0,.58.2.66.6.26q3.66-3.95,6.12-7.09c-.84,2.14-2.44,6.52-4.77,13.14-.7,2-1.1,3.09-1.2,3.29a.58.58,0,0,0-.07.48c0,.13.28.19.7.19a11.91,11.91,0,0,0,3.33-1.35c.4-.25,2.1-2.37,5.11-6.38a69.66,69.66,0,0,1,6.83-8.17c2.29-2,3.84-3,4.63-3,.4,0,.6.19.6.56a4.83,4.83,0,0,1-.75,1.9q-3.58,6.65-4,9.78a14,14,0,0,0-.14,2,5.09,5.09,0,0,0,.22,1.61,3.75,3.75,0,0,0,3.81,2.83,11,11,0,0,0,6.57-2.61,40.59,40.59,0,0,0,4.7-4.44,36.56,36.56,0,0,0,3.09-3.67h0a13.16,13.16,0,0,0,.93-1.44.77.77,0,0,0,.15-.42C85,33.53,84.86,33.41,84.64,33.28ZM75.71,3.53a5.4,5.4,0,0,1,2.88-1.34q1.08,0,1.08,1.23a6.62,6.62,0,0,1-1,3A42.09,42.09,0,0,1,71,16.15a65.24,65.24,0,0,1-10.15,8.36Q67.51,9.8,75.71,3.53Z" transform="translate(-0.57 -0.32)"/><path d="M111,1.36,109.49.84,107.7.62q-5,0-10,7.54a88.83,88.83,0,0,0-5,9.59q-2.76,6-4.1,9.74L86.42,33H86.2c-.15,0-.43-.2-.83-.6a2,2,0,0,0-1.49-.59,8,8,0,0,0-2.57.63c-1.12.42-1.68.9-1.68,1.42a1.54,1.54,0,0,0,.63,1.27,2.85,2.85,0,0,0,1.76.48h.19c.44,0,1,0,1.67-.11h0c.47,0,1-.11,1.56-.18Q73,67.22,71.64,69.75a1.73,1.73,0,0,0-.15.6c0,.35.36.52,1.08.52A5.11,5.11,0,0,0,75,70.12c.89-.49,1.4-.79,1.53-.89a1.59,1.59,0,0,0,.37-.49l.34-.59a6.91,6.91,0,0,0,.37-.86c.15-.4.29-.76.41-1.09s.31-.79.56-1.41.46-1.17.64-1.65a8.8,8.8,0,0,0,.33-2.35q.15-3.28,9-25.83c4.84-.71,9.29-1.25,11.75-1.58.94-.14,1.59-.24,1.86-.32.94-.28,1.42-.51,1.42-.71s-.66-.45-1.83-.45h-.69c-1.79,0-5.79.21-9.3.51a101.71,101.71,0,0,0,11.94-11.57q6.2-6.94,8.21-11.27a11.14,11.14,0,0,0,1.2-4.74A3.88,3.88,0,0,0,111,1.36Zm-1.12,7.17a95.77,95.77,0,0,1-9.25,13.07,66.75,66.75,0,0,1-11.13,11S93,24.36,96.2,18.39a97.7,97.7,0,0,1,5.45-8.59q5.22-7.32,8.06-7.32c.95,0,1.42.65,1.42,2A8.11,8.11,0,0,1,109.86,8.53Z" transform="translate(-0.57 -0.32)"/><path d="M117.67,27.79a1.79,1.79,0,0,0-1.6.45,1.22,1.22,0,0,0-.3,1.46A6.71,6.71,0,0,1,116.1,32a10.74,10.74,0,0,1-1.34,4.25,22.81,22.81,0,0,1-1.64,2.84,17.57,17.57,0,0,1-3.88,4.18,6.79,6.79,0,0,1-4,1.64,2.55,2.55,0,0,1-2.5-1.3,5.15,5.15,0,0,1-.67-2.32,10.27,10.27,0,0,1,.15-1.83,20,20,0,0,1,4.93-9.63q4.1-4.77,6.71-4.77c1,0,1.5.44,1.5,1.34,0,.65.12,1,.37,1.12.6,0,.9-.57.9-1.72A2.83,2.83,0,0,0,114.39,23a5.42,5.42,0,0,0-1.57-.23c-2.19,0-4.51,1.07-6.94,3.21a21.62,21.62,0,0,0-4,4.71c-.27.4-.51.8-.74,1.2s-.54,1-.76,1.47a14.74,14.74,0,0,0-1.48,6.28q0,4,2.61,5.6a5.59,5.59,0,0,0,3.36,1,9.84,9.84,0,0,0,6.5-2.46,28,28,0,0,0,2.91-3A17.26,17.26,0,0,0,115.66,39c2.34-3.23,3.51-5.85,3.51-7.84S118.67,28,117.67,27.79Z" transform="translate(-0.57 -0.32)"/><path d="M31.09,54.16a1.37,1.37,0,0,1,1.54,1.44A1.26,1.26,0,0,1,32,56.81a1.37,1.37,0,0,1,1,1.41,1.53,1.53,0,0,1-1.75,1.59H29.33V54.15h1.76Zm1,1.45a.91.91,0,0,0-1-1H29.85v2h1.24A.93.93,0,0,0,32.13,55.61Zm.28,2.62a1.07,1.07,0,0,0-1.23-1.15H29.85v2.28h1.33C32.12,59.36,32.41,58.82,32.41,58.23Z" transform="translate(-0.57 -0.32)"/><path d="M35.61,55.63a1.57,1.57,0,0,1,1.67,1.56,3.47,3.47,0,0,1,0,.42h-3a1.62,1.62,0,0,0,1.72,1.89,2.22,2.22,0,0,0,1.3-.47v.43a2.35,2.35,0,0,1-1.55.48,2,2,0,0,1-2-2.18A2,2,0,0,1,35.61,55.63Zm0,.42a1.38,1.38,0,0,0-1.39,1.16h2.54A1,1,0,0,0,35.63,56Z" transform="translate(-0.57 -0.32)"/><path d="M38.12,59.12a2.68,2.68,0,0,0,1.32.38c.58,0,1-.23,1-.77s-.35-.58-1.08-.77-1.2-.66-1.2-1.18.47-1.14,1.4-1.14A2.64,2.64,0,0,1,40.7,56l-.1.42a2.32,2.32,0,0,0-1.06-.28c-.64,0-.91.27-.91.67s.33.59.92.75c.87.22,1.37.63,1.37,1.15A1.32,1.32,0,0,1,39.42,60a2.75,2.75,0,0,1-1.41-.4Z" transform="translate(-0.57 -0.32)"/><path d="M42.88,56.17v3.65h-.5V56.17h-.92v-.42h.92V54.64h.5v1.11h.92v.42Z" transform="translate(-0.57 -0.32)"/><path d="M48.13,54.16a1.37,1.37,0,0,1,1.54,1.44A1.26,1.26,0,0,1,49,56.81a1.37,1.37,0,0,1,1,1.41,1.53,1.53,0,0,1-1.75,1.59H46.37V54.15h1.76Zm1,1.45a.91.91,0,0,0-1-1H46.9v2h1.24A.93.93,0,0,0,49.17,55.61Zm.28,2.62a1.07,1.07,0,0,0-1.23-1.15H46.9v2.28h1.33C49.16,59.36,49.45,58.82,49.45,58.23Z" transform="translate(-0.57 -0.32)"/><path d="M51,55.79l.42-.08.06.83a2,2,0,0,1,1.57-.9v.58a1.33,1.33,0,0,0-1.54,1.17v2.43H51v-4Z" transform="translate(-0.57 -0.32)"/><path d="M55.48,55.64a1.85,1.85,0,0,1,1.65,1l0-.84h.43v4.07h-.43l0-.84a1.85,1.85,0,0,1-1.65,1,2.15,2.15,0,0,1,0-4.29Zm.06,3.85A1.72,1.72,0,1,0,54,57.78,1.57,1.57,0,0,0,55.54,59.49Z" transform="translate(-0.57 -0.32)"/><path d="M61.91,59.82V57.5c0-1.06-.43-1.4-1.12-1.4a1.51,1.51,0,0,0-1.46,1.4v2.32h-.5V55.75h.43l0,.82a1.83,1.83,0,0,1,1.6-.93c1,0,1.51.63,1.51,1.79v2.4h-.5Z" transform="translate(-0.57 -0.32)"/><path d="M65.42,55.64a1.87,1.87,0,0,1,1.6.86V54.17h.5v5.66h-.43l0-.84a1.85,1.85,0,0,1-1.65,1,2.15,2.15,0,0,1,0-4.3Zm.05,3.85a1.72,1.72,0,1,0-1.58-1.71A1.57,1.57,0,0,0,65.47,59.49Z" transform="translate(-0.57 -0.32)"/><path d="M68.54,59.12a2.68,2.68,0,0,0,1.32.38c.58,0,1-.23,1-.77s-.35-.58-1.08-.77-1.2-.66-1.2-1.18S69,55.64,70,55.64a2.64,2.64,0,0,1,1.16.31l-.1.42A2.32,2.32,0,0,0,70,56.09c-.64,0-.91.27-.91.67s.33.59.92.75c.87.22,1.37.63,1.37,1.15A1.32,1.32,0,0,1,69.84,60a2.75,2.75,0,0,1-1.41-.4Z" transform="translate(-0.57 -0.32)"/><path d="M72.13,59.82V59.2h.62v.62Z" transform="translate(-0.57 -0.32)"/><path d="M87.2,54.16a1.37,1.37,0,0,1,1.54,1.44,1.26,1.26,0,0,1-.67,1.21,1.37,1.37,0,0,1,1,1.41,1.53,1.53,0,0,1-1.75,1.59H85.44V54.15H87.2Zm1,1.45a.91.91,0,0,0-1-1H86v2H87.2A.93.93,0,0,0,88.24,55.61Zm.28,2.62a1.07,1.07,0,0,0-1.23-1.15H86v2.28h1.33C88.23,59.36,88.52,58.82,88.52,58.23Z" transform="translate(-0.57 -0.32)"/><path d="M91.72,55.63a1.57,1.57,0,0,1,1.67,1.56,3.47,3.47,0,0,1,0,.42h-3A1.62,1.62,0,0,0,92,59.5a2.22,2.22,0,0,0,1.3-.47v.43a2.35,2.35,0,0,1-1.55.48,2,2,0,0,1-2-2.18A2,2,0,0,1,91.72,55.63Zm0,.42a1.38,1.38,0,0,0-1.39,1.16H92.9A1,1,0,0,0,91.75,56Z" transform="translate(-0.57 -0.32)"/><path d="M95.38,56.17v3.65h-.5V56.17H94v-.42h.92V54.64h.5v1.11h.92v.42Z" transform="translate(-0.57 -0.32)"/><path d="M98.68,56.17v3.65h-.5V56.17h-.92v-.42h.92V54.64h.5v1.11h.92v.42Z" transform="translate(-0.57 -0.32)"/><path d="M101.95,55.63a1.57,1.57,0,0,1,1.67,1.56,3.47,3.47,0,0,1,0,.42h-3a1.62,1.62,0,0,0,1.72,1.89,2.22,2.22,0,0,0,1.3-.47v.43a2.35,2.35,0,0,1-1.55.48,2,2,0,0,1-2-2.18A2,2,0,0,1,101.95,55.63Zm0,.42a1.38,1.38,0,0,0-1.39,1.16h2.54A1,1,0,0,0,102,56Z" transform="translate(-0.57 -0.32)"/><path d="M104.65,55.79l.42-.08.06.83a2,2,0,0,1,1.57-.9v.58a1.33,1.33,0,0,0-1.54,1.17v2.43h-.5v-4Z" transform="translate(-0.57 -0.32)"/><path d="M111,54.16a1.71,1.71,0,1,1,0,3.42h-1.24v2.24h-.52V54.16Zm1.23,1.71A1.15,1.15,0,0,0,111,54.62h-1.24v2.49H111A1.13,1.13,0,0,0,112.24,55.87Z" transform="translate(-0.57 -0.32)"/><path d="M113.53,55.79l.42-.08.06.83a2,2,0,0,1,1.57-.9v.58A1.33,1.33,0,0,0,114,57.39v2.43h-.5v-4Z" transform="translate(-0.57 -0.32)"/><path d="M116.39,54.81v-.64h.5v.64Zm0,5V55.75h.5v4.07Z" transform="translate(-0.57 -0.32)"/><path d="M120,55.64a2.23,2.23,0,0,1,1.36.39v.48a2.25,2.25,0,0,0-1.29-.42,1.71,1.71,0,0,0,0,3.42,2.23,2.23,0,0,0,1.29-.42v.48A2.27,2.27,0,0,1,120,60a2.16,2.16,0,0,1,0-4.32Z" transform="translate(-0.57 -0.32)"/><path d="M123.86,55.63a1.57,1.57,0,0,1,1.67,1.56,3.47,3.47,0,0,1,0,.42h-3a1.62,1.62,0,0,0,1.72,1.89,2.22,2.22,0,0,0,1.3-.47v.43a2.35,2.35,0,0,1-1.55.48,2.17,2.17,0,0,1-.07-4.31Zm0,.42a1.38,1.38,0,0,0-1.39,1.16H125A1,1,0,0,0,123.89,56Z" transform="translate(-0.57 -0.32)"/><path d="M126.37,59.12a2.68,2.68,0,0,0,1.32.38c.58,0,1-.23,1-.77s-.35-.58-1.08-.77-1.2-.66-1.2-1.18.47-1.14,1.4-1.14a2.64,2.64,0,0,1,1.16.31l-.1.42a2.32,2.32,0,0,0-1.06-.28c-.64,0-.91.27-.91.67s.33.59.92.75c.87.22,1.37.63,1.37,1.15a1.32,1.32,0,0,1-1.5,1.31,2.75,2.75,0,0,1-1.41-.4Z" transform="translate(-0.57 -0.32)"/><path d="M130,59.82V59.2h.62v.62Z" transform="translate(-0.57 -0.32)"/><path d="M54,8.87a7.75,7.75,0,0,1-2.43,5.41,15.67,15.67,0,0,1-6.08,3.88A44.86,44.86,0,0,1,32,21.07q3.21,1.95,5.3,3.4a33.37,33.37,0,0,1,4.48,3.85,13.35,13.35,0,0,1,3.06,4.1,8.53,8.53,0,0,1,.67,3.06,13,13,0,0,1-3.36,8.44,15.26,15.26,0,0,1-6.23,4.4A22,22,0,0,1,27.4,50q-9.57,0-10.46-6.72a.61.61,0,0,1-.14-.45c-1.9,3-3.46,4.55-4.71,4.55a8.18,8.18,0,0,1-1.68-.26c-.77-.17-1.17-.36-1.19-.56a11.34,11.34,0,0,1,0-1.27A19,19,0,0,1,10.6,40.6a78.15,78.15,0,0,1,3.21-7.28q3.51-6.72,6.94-13a5.63,5.63,0,0,0,.6-2,6.66,6.66,0,0,0-.07-1q.29-2.1,3.62-5.49t6-3.4a6.38,6.38,0,0,1,2.38.67,2.88,2.88,0,0,1,1.8,1.87,1.84,1.84,0,0,1,0,.64c0,.07-.16.06-.41,0a2.09,2.09,0,0,0-.45-.15q-2.39,0-5.71,3.55a50.3,50.3,0,0,0-6.38,8.69,131.37,131.37,0,0,0-9.11,17.17,6.76,6.76,0,0,0-.59,2.32c0,.74.32,1.12,1,1.12s1.51-.69,2.61-2.06,1.87-2,2.31-2a1.69,1.69,0,0,1,1.09.41,2.07,2.07,0,0,1,.56.78,5.7,5.7,0,0,1,.22,1.16,5.6,5.6,0,0,0,.15,1q1.19,5.31,7.54,5.3h.3A15.71,15.71,0,0,0,37,46.38c2.68-1.79,4-4,4-6.68s-1.25-5.46-3.73-8.4a43.14,43.14,0,0,0-3.51-3.36q-4.94-4.24-5.08-5.45a2,2,0,0,1,1-2,3.89,3.89,0,0,1,2.13-.78q3.65,0,10-2.61,9.33-3.81,10-8.44V8.23A3.53,3.53,0,0,0,50.69,5.7q-2-2.17-8.51-2.17A80.17,80.17,0,0,0,21.5,6.74,43.56,43.56,0,0,0,8.88,12.26q-6,4-6,8.44a3.46,3.46,0,0,0,.6,1.9A3.55,3.55,0,0,0,4.89,24a19.25,19.25,0,0,0,2.05.89q1.27.49,1.83.75c.37.18.5.39.37.64s-.48.32-1.08.22a9,9,0,0,1-4.93-2,5.73,5.73,0,0,1-2.4-3.73s0-.08,0-.14a8.81,8.81,0,0,1-.14-1.45,8.43,8.43,0,0,1,0-1,2.64,2.64,0,0,1,0-.28,1.66,1.66,0,0,1,0-.22l.06-.33a5.6,5.6,0,0,1,.2-.7h0a11.42,11.42,0,0,1,3.31-4.7A42.23,42.23,0,0,1,12.61,6q5.08-2.76,16.13-4.63a71.73,71.73,0,0,1,10.49-1,34.9,34.9,0,0,1,7.43.71A10.58,10.58,0,0,1,52,3.9,6.81,6.81,0,0,1,54,8.87Z" transform="translate(-0.57 -0.32)"/></g></svg>